<svg width="1070" height="838" viewBox="0 0 1070 838" fill="none" xmlns="http://www.w3.org/2000/svg">
<g id="undraw_instant_support_elxh 1">
<g id="left-arm">
<path id="Vector" d="M475.26 362.68C475.06 375.26 497.38 386.33 507.98 390.88C511.28 392.29 513.46 393.07 513.46 393.07L515.77 378.59C515.77 378.59 514.32 377.42 511.98 375.65C501.91 368.06 475.48 349.3 475.26 362.68Z" fill="#EFB7B9"/>
<path id="Vector_2" opacity="0.1" d="M507.98 390.88C511.28 392.29 513.46 393.07 513.46 393.07L515.77 378.59C515.77 378.59 514.32 377.42 511.98 375.65L507.98 390.88Z" fill="black"/>
<path id="Vector_3" d="M621.6 395.45C621.6 395.45 577.84 391.52 576.69 391.33C575.54 391.14 561.28 386.33 559.88 385.62C558.48 384.91 551.55 377.55 535.96 377.93C520.37 378.31 513.06 375.46 513.06 375.46L507.91 395.06L611.85 406.85L621.6 395.45Z" fill="#E1E7EF"/>
<path id="Vector_4" opacity="0.05" d="M621.6 395.45C621.6 395.45 577.84 391.52 576.69 391.33C575.54 391.14 561.28 386.33 559.88 385.62C558.48 384.91 551.55 377.55 535.96 377.93C520.37 378.31 513.06 375.46 513.06 375.46L507.91 395.06L611.85 406.85L621.6 395.45Z" fill="black"/>
</g>
<g id="fying-dude">
<path id="Vector_5" d="M670.82 450.89C670.82 450.89 678.9 450.38 690.16 453.98C693.892 455.156 697.521 456.638 701.01 458.41C717.57 466.75 703.82 421.75 703.82 421.75C703.82 421.75 699.21 421.75 693.67 421.28C687.05 420.75 679.11 419.65 676.17 417.35C670.77 413.08 670.82 450.89 670.82 450.89Z" fill="#EFB7B9"/>
<path id="Vector_6" d="M315.86 346.75C315.86 346.75 314.26 327.12 305.96 330.52C297.66 333.92 283.32 345.52 279.21 345.84C275.1 346.16 250.21 360.33 250.8 375.84C251.39 391.35 274.8 373.33 274.8 373.33C274.8 373.33 296.58 367.98 303.62 370.39C310.66 372.8 315.86 346.75 315.86 346.75Z" fill="#B07473"/>
<path id="Vector_7" opacity="0.1" d="M250.8 375.87C251.37 391.38 274.8 373.36 274.8 373.36C274.8 373.36 296.57 368.01 303.62 370.42C305.62 371.12 307.62 369.42 309.22 366.61C312.37 361.29 314.65 352.07 315.48 348.37C315.71 347.37 315.82 346.78 315.82 346.78C315.82 346.78 314.22 327.15 305.92 330.56C297.62 333.97 283.29 345.51 279.18 345.87C275.07 346.23 250.24 360.36 250.8 375.87Z" fill="black"/>
<path id="Vector_8" opacity="0.1" d="M295.71 358.37C296.42 360.19 301.45 363.08 309.26 366.61C312.41 361.29 314.69 352.07 315.52 348.37C314.05 347.74 313.01 347.01 312.84 346.19C312.26 343.45 291.64 347.93 295.71 358.37Z" fill="black"/>
<path id="Vector_9" d="M469.76 396.75L421.91 385.91C421.91 385.91 389.51 366.84 376.91 363.02C364.31 359.2 342.58 353.95 340.7 353.02C338.82 352.09 333.52 351.49 329.51 351.24C325.5 350.99 315.31 349.24 314.73 346.51C314.15 343.78 293.53 348.24 297.6 358.68C301.67 369.12 447.09 414.55 447.09 414.55L469.76 396.75Z" fill="#465340"/>
<path id="Vector_10" opacity="0.1" d="M469.76 396.75L421.91 385.91C421.91 385.91 389.51 366.84 376.91 363.02C364.31 359.2 342.58 353.95 340.7 353.02C338.82 352.09 333.52 351.49 329.51 351.24C325.5 350.99 315.31 349.24 314.73 346.51C314.15 343.78 293.53 348.24 297.6 358.68C301.67 369.12 447.09 414.55 447.09 414.55L469.76 396.75Z" fill="black"/>
<path id="Vector_11" d="M228.32 378.75C228.89 394.27 252.32 376.24 252.32 376.24C252.32 376.24 267.55 372.5 276.65 372.68C278.169 372.658 279.683 372.867 281.14 373.3C288.14 375.71 293.35 349.66 293.35 349.66C293.35 349.66 293.25 348.4 292.96 346.58C292.11 341.18 289.65 330.89 283.44 333.43C275.14 336.84 260.81 348.43 256.7 348.74C252.59 349.05 227.76 363.27 228.32 378.75Z" fill="#B07473"/>
<path id="Vector_12" opacity="0.1" d="M276.68 372.75C278.199 372.728 279.713 372.937 281.17 373.37C288.17 375.78 293.38 349.73 293.38 349.73C293.38 349.73 293.28 348.47 292.99 346.65C287.15 345.4 282.26 344.28 282.26 344.28C271.54 344.75 275.06 365.3 276.68 372.75Z" fill="black"/>
<path id="Vector_13" d="M279.28 375.66C287.07 383.99 312.79 387.75 316.71 386.53C319.602 385.802 322.608 385.645 325.56 386.07L369.7 406.62C369.7 406.62 376 412.68 382.94 413.62C389.88 414.56 406.35 423.42 406.35 423.42L421.93 429.42C421.93 429.42 429.54 436.75 432.42 437.75C435.3 438.75 451.57 443.66 451.57 443.66C451.57 443.66 477.7 458.66 486.09 462.17C494.48 465.68 509.97 465.8 513.59 464.35C516.03 463.35 527.36 462.64 534.4 462.26C537.74 462.09 540.12 462 540.12 462L548.36 399.69C548.36 399.69 541.55 398.18 532.95 396.15C520.46 393.21 504.19 389.15 499.68 387.03C492.05 383.44 451.38 394.03 443.92 394.18C436.46 394.33 398.41 382.18 398.41 382.18C398.41 382.18 350.87 355.36 341.25 355.35C331.63 355.34 319.14 351.15 311.38 350.08C303.62 349.01 284.24 344.57 284.24 344.57C271.15 345.17 279.28 375.66 279.28 375.66Z" fill="#465340"/>
<path id="Vector_14" opacity="0.1" d="M687.1 435.59C686.086 441.89 687.161 448.348 690.16 453.98C693.892 455.156 697.521 456.638 701.01 458.41C717.57 466.75 703.82 421.75 703.82 421.75C703.82 421.75 699.21 421.75 693.67 421.28C690.21 425.358 687.937 430.308 687.1 435.59V435.59Z" fill="black"/>
<path id="Vector_15" d="M688.09 435.75C686.938 442.968 688.523 450.355 692.534 456.466C696.544 462.576 702.692 466.969 709.772 468.783C716.853 470.598 724.355 469.703 730.81 466.275C737.266 462.847 742.208 457.132 744.67 450.25V450.25C744.85 449.75 745.01 449.25 745.17 448.74C745.54 447.514 745.827 446.265 746.03 445C747.203 437.571 745.479 429.975 741.213 423.781C736.948 417.587 730.466 413.267 723.107 411.715C715.748 410.162 708.074 411.494 701.669 415.436C695.264 419.379 690.618 425.63 688.69 432.9C688.438 433.838 688.237 434.79 688.09 435.75V435.75Z" fill="#EFB7B9"/>
<path id="Vector_16" opacity="0.1" d="M535.19 435.69C528.96 447.83 532.06 457.57 534.4 462.22C537.74 462.05 540.12 461.96 540.12 461.96L548.36 399.65C548.36 399.65 541.55 398.14 532.95 396.11L532.06 396.04C532.06 396.04 544 418.53 535.19 435.69Z" fill="black"/>
<path id="Vector_17" d="M538.15 436.16C529.34 453.33 539.15 465.69 539.15 465.69C539.15 465.69 543.74 464.4 547.73 471.11C551.72 477.82 564.05 476.75 566.82 474.11C569.59 471.47 579.29 470.02 582.53 470.88C585.77 471.74 627.7 473.35 627.7 473.35C627.7 473.35 665.64 472.71 677.79 453.78C678.29 453.014 678.744 452.219 679.15 451.4C679.15 451.4 688.74 433.46 689.04 429.46C689.17 427.9 688.54 425.2 687.74 422.46C686.47 418.21 684.74 413.9 684.74 413.9L678.27 412.2C678.27 412.2 659.39 401.43 657.84 398.48C656.29 395.53 624.04 392.42 607.65 395.71C591.26 399 560.28 398.58 560.28 398.58L534.96 396.45C534.96 396.45 546.91 419 538.15 436.16Z" fill="#E1E7EF"/>
<path id="Vector_18" opacity="0.1" d="M575.3 465.75C571.497 464.278 567.818 462.502 564.3 460.44C558.47 456.95 575.3 465.75 575.3 465.75Z" fill="black"/>
<path id="Vector_19" opacity="0.1" d="M663.32 450.35L674.7 455.5C675.2 454.733 675.651 453.935 676.05 453.11C676.05 453.11 685.65 435.18 685.95 431.17C686.08 429.61 685.45 426.91 684.64 424.17L663.32 450.35Z" fill="black"/>
<path id="Vector_20" d="M666.45 448.68L677.83 453.82C678.33 453.054 678.784 452.259 679.19 451.44C679.19 451.44 688.78 433.5 689.08 429.5C689.21 427.94 688.58 425.24 687.78 422.5L666.45 448.68Z" fill="#E1E7EF"/>
<path id="Vector_21" d="M688.69 432.89C689.161 433.506 689.762 434.011 690.45 434.37C692.22 435.18 694.28 434.37 696.22 434.46C698.16 434.55 700.12 435.61 702.13 435.77C703.547 435.791 704.961 435.616 706.33 435.25C708.98 434.7 711.86 434.39 714.33 435.59C716.8 436.79 718.33 440.03 716.89 442.32C718.46 444.53 721.51 445.24 724.2 444.87C730.5 443.98 735.78 438.56 742.2 442.76C744.99 444.61 744.81 447.47 744.75 450.24C744.93 449.74 745.09 449.24 745.25 448.73C745.62 447.504 745.907 446.254 746.11 444.99C747.283 437.561 745.559 429.965 741.293 423.771C737.028 417.577 730.546 413.257 723.187 411.705C715.828 410.152 708.154 411.484 701.749 415.426C695.344 419.369 690.698 425.62 688.77 432.89H688.69Z" fill="url(#paint0_linear)"/>
<g id="Group" opacity="0.1">
<path id="Vector_22" opacity="0.1" d="M691.91 404.34C691.03 408.15 690.15 412.22 688.05 415.41C689.023 412.809 689.785 410.133 690.33 407.41C690.947 404.13 692.125 400.981 693.81 398.1C693.005 400.124 692.37 402.211 691.91 404.34V404.34Z" fill="black"/>
<path id="Vector_23" opacity="0.1" d="M684.19 421.08L684.5 420.79C684.691 421.239 684.944 421.66 685.25 422.04L689.81 428.1C690.405 429.035 691.218 429.81 692.18 430.36C693.94 431.18 696.01 430.36 697.95 430.44C699.89 430.52 701.84 431.61 703.86 431.76C705.277 431.786 706.692 431.611 708.06 431.24C710.71 430.69 713.59 430.38 716.06 431.58C718.53 432.78 720.06 436.02 718.62 438.31C720.2 440.52 723.24 441.24 725.93 440.86C732.23 439.98 737.51 434.55 743.93 438.75C749.18 442.21 743.87 449.35 748.82 452.48C750.168 453.249 751.652 453.751 753.19 453.96C754.93 454.29 756.81 454.52 758.39 453.73C759.193 453.305 759.879 452.691 760.39 451.94C760.191 452.483 759.961 453.014 759.7 453.53C759.109 454.887 758.095 456.016 756.81 456.75C755.147 457.386 753.323 457.467 751.61 456.98C750.069 456.77 748.582 456.268 747.23 455.5C742.29 452.37 747.6 445.23 742.34 441.77C735.97 437.57 730.69 443 724.34 443.88C721.66 444.26 718.61 443.54 717.03 441.33C718.47 439.04 716.9 435.8 714.47 434.6C712.04 433.4 709.17 433.71 706.52 434.26C705.152 434.631 703.737 434.806 702.32 434.78C700.32 434.63 698.43 433.55 696.41 433.46C694.39 433.37 692.41 434.2 690.64 433.38C689.676 432.833 688.862 432.057 688.27 431.12L683.71 425.06C683.416 424.764 683.187 424.411 683.037 424.022C682.887 423.633 682.82 423.216 682.84 422.8C683.093 422.097 683.567 421.493 684.19 421.08V421.08Z" fill="black"/>
</g>
</g>
<g id="right-arm">
<path id="Vector_24" opacity="0.1" d="M667.91 424.61C667.91 424.61 655.45 447.77 628.81 440.15C602.17 432.53 582.22 438.15 582.22 438.15C582.22 438.15 557.3 436.72 552.71 434.81C545.826 432.209 538.793 430.019 531.65 428.25C527.72 427.45 522.24 425.87 517.9 424.52C513.56 423.17 490.37 418.29 490.37 418.29C490.37 418.29 497.7 401.91 494.15 399.82C494.15 399.82 517.04 404.48 517.3 402.82C517.56 401.16 543.21 400.15 545.3 401.82C547.39 403.49 570.3 405.14 572.3 405.89C574.3 406.64 609.7 409.75 609.7 409.75C609.7 409.75 662.81 388.16 667.91 424.61Z" fill="black"/>
<path id="Vector_25" d="M499.91 401.52C499.91 401.52 458.2 377.35 456.67 393.31C455.14 409.27 495.91 415.09 495.91 415.09L499.91 401.52Z" fill="#EFB7B9"/>
<path id="Vector_26" opacity="0.1" d="M667.41 421.49C667.41 421.49 654.91 444.65 628.31 437.03C601.71 429.41 581.71 435.03 581.71 435.03C581.71 435.03 556.79 433.6 552.21 431.69C545.323 429.088 538.287 426.897 531.14 425.13C527.22 424.33 521.73 422.75 517.39 421.4C513.05 420.05 489.86 415.17 489.86 415.17C489.86 415.17 497.2 398.79 493.65 396.7C493.65 396.7 516.53 401.36 516.8 399.7C517.07 398.04 542.71 397.03 544.8 398.7C546.89 400.37 569.8 402.02 571.8 402.77C573.8 403.52 609.17 406.62 609.17 406.62C609.17 406.62 662.3 385.04 667.41 421.49Z" fill="black"/>
<path id="Vector_27" d="M668.24 422.63C668.24 422.63 655.77 445.79 629.14 438.17C602.51 430.55 582.54 436.17 582.54 436.17C582.54 436.17 557.62 434.74 553.04 432.83C546.153 430.225 539.117 428.031 531.97 426.26C528.05 425.47 522.56 423.88 518.22 422.53C513.88 421.18 490.69 416.31 490.69 416.31C490.69 416.31 498.03 399.92 494.48 397.84C494.48 397.84 517.36 402.5 517.63 400.84C517.9 399.18 543.54 398.17 545.63 399.84C547.72 401.51 570.58 403.16 572.63 403.92C574.68 404.68 610.02 407.75 610.02 407.75C610.02 407.75 663.13 386.18 668.24 422.63Z" fill="#E1E7EF"/>
</g>
<g id="tie">
<path id="Vector_28" d="M689.33 438.36L684.17 443.15C684.17 443.15 678.64 446.15 678.04 447.75C677.44 449.35 666.19 449.06 666.19 449.06L653.19 457.26L658.71 449.56C656.521 450.09 654.24 450.121 652.037 449.652C649.834 449.183 647.764 448.226 645.98 446.85C639.64 442.13 627.08 429.85 627.08 429.85L604.38 412.26L604 400.89L621.84 398L663.41 440.06L672.82 441.39L682.82 440.28L689.33 438.36Z" fill="#E44650"/>
</g>
<g id="hair">
<path id="Vector_29" d="M747.16 455.5C748.512 456.268 749.999 456.77 751.54 456.98C753.253 457.467 755.077 457.387 756.74 456.75C758.025 456.016 759.039 454.887 759.63 453.53C763.33 446.19 760.47 437.27 762.04 429.2C762.7 425.8 764.15 422.3 763.12 419C762.09 415.7 758.64 413.49 755.73 411.35C751.367 408.137 747.637 404.143 744.73 399.57C743.18 397.13 741.79 394.44 739.39 392.85C736.57 390.97 732.91 390.97 729.56 391.48C726.21 391.99 722.89 392.94 719.5 392.74C717.4 392.62 715.34 392.05 713.24 391.85C710.792 391.702 708.336 391.809 705.91 392.17C703.03 392.49 700.05 392.85 697.57 394.35C693.2 396.99 691.5 402.35 690.36 407.35C689.22 412.35 688.07 417.73 684.21 421.06C683.576 421.469 683.091 422.072 682.83 422.78C682.81 423.196 682.877 423.613 683.027 424.002C683.177 424.391 683.406 424.744 683.7 425.04L688.26 431.1C688.852 432.037 689.666 432.813 690.63 433.36C692.39 434.18 694.46 433.36 696.4 433.44C698.34 433.52 700.29 434.61 702.31 434.76C703.727 434.786 705.142 434.611 706.51 434.24C709.16 433.69 712.04 433.38 714.46 434.58C716.88 435.78 718.46 439.02 717.02 441.31C718.6 443.52 721.65 444.24 724.33 443.86C730.64 442.98 735.92 437.55 742.33 441.75C747.53 445.23 742.22 452.37 747.16 455.5Z" fill="#703D2E"/>
</g>
</g>
<defs>
<linearGradient id="paint0_linear" x1="-21546" y1="17345.7" x2="-24927.2" y2="17345.7" gradientUnits="userSpaceOnUse">
<stop stop-color="#808080" stop-opacity="0.25"/>
<stop offset="0.54" stop-color="#808080" stop-opacity="0.12"/>
<stop offset="1" stop-color="#808080" stop-opacity="0.1"/>
</linearGradient>
</defs>
</svg>
