<svg width="340" height="227" viewBox="0 0 840 727" fill="none" xmlns="http://www.w3.org/2000/svg">

<g id="undraw_Taken_if77 (2) 1" clip-path="url(#clip0)">
<g id="space-light">
<path id="Vector" opacity="0.2" d="M432 176.9L590.76 451.88L749.52 726.85H432H114.48L273.24 451.88L432 176.9Z" fill="#536DFE"/>
</g>
<g id="space-ship">
<g id="Group" opacity="0.8">
<path id="Vector_2" opacity="0.8" d="M432 245.77C512.888 245.77 578.46 194.972 578.46 132.31C578.46 69.6478 512.888 18.85 432 18.85C351.112 18.85 285.54 69.6478 285.54 132.31C285.54 194.972 351.112 245.77 432 245.77Z" fill="url(#paint0_linear)"/>
</g>
<path id="Vector_3" d="M432 243.25C511.093 243.25 575.21 193.58 575.21 132.31C575.21 71.0395 511.093 21.37 432 21.37C352.907 21.37 288.79 71.0395 288.79 132.31C288.79 193.58 352.907 243.25 432 243.25Z" fill="#536DFE"/>
<path id="Vector_4" opacity="0.1" d="M311.94 144.64C311.94 83.37 376.05 33.7 455.14 33.7C479.695 33.5649 504.005 38.5829 526.5 48.43C501.33 31.43 468.4 21.1 432.36 21.1C353.27 21.1 289.15 70.77 289.15 132.04C289.15 173.18 318.06 209.09 361.01 228.25C330.94 207.91 311.94 178 311.94 144.64Z" fill="white"/>
<g id="Group_2" opacity="0.5">
<g id="Group_3" opacity="0.3">
<path id="Vector_5" opacity="0.3" d="M482.67 173.22L495 136.63C499.24 123.888 499.274 110.12 495.097 97.3569C490.92 84.5937 482.753 73.5102 471.8 65.74L471.9 65.68C467.05 62.2656 461.732 59.5711 456.11 57.68L455.94 57.62L455.75 57.56C450.293 55.7144 444.604 54.644 438.85 54.38C436.815 54.275 434.775 54.275 432.74 54.38C429.209 54.5648 425.699 55.0499 422.25 55.83C421.25 56.05 420.25 56.3 419.34 56.57C418.43 56.84 417.41 57.13 416.46 57.44C414.56 58.07 412.69 58.78 410.86 59.59C409.94 59.99 409.03 60.41 408.14 60.86C405.449 62.1888 402.859 63.7129 400.39 65.42C399.56 65.99 398.75 66.58 397.95 67.18C388.065 74.6969 380.666 85.0089 376.71 96.78L357.33 154.43C354.28 163.471 353.363 173.095 354.65 182.55C354.85 184 355.1 185.44 355.39 186.87C355.68 188.3 356.04 189.71 356.39 191.11C356.66 192.04 356.94 192.97 357.25 193.89C357.71 195.26 358.25 196.63 358.76 197.97C359.13 198.86 359.52 199.75 359.93 200.63C360.74 202.38 361.64 204.09 362.61 205.76C363.58 207.43 364.61 209.06 365.77 210.64C366.61 211.82 367.5 212.98 368.42 214.1C369.66 215.6 370.96 217.05 372.34 218.43C378.313 224.452 385.461 229.18 393.34 232.32V232.32L393.68 232.46C394.103 231.709 394.571 230.985 395.08 230.29C398.08 226.18 403.3 223.29 408.27 224.37C408.63 224.45 408.99 224.56 409.35 224.67C411.87 225.56 414.35 227.15 416.78 227.93C417.664 228.327 418.624 228.527 419.593 228.515C420.562 228.502 421.516 228.279 422.39 227.86C427.25 225.27 425.45 217.1 429.62 213.52C429.814 213.355 430.018 213.201 430.23 213.06C430.171 212.987 430.118 212.911 430.07 212.83C433.29 210.83 437.75 212.16 441.46 213.45C445.46 214.86 450.68 215.81 453.46 212.54C455.34 210.3 455.2 206.89 456.99 204.54C459.07 201.84 462.99 201.54 466.38 202.02H466.55C473.05 204.7 480.15 200.25 479.65 193.24C479.06 183.94 482 175.13 482.67 173.22Z" fill="url(#paint1_linear)"/>
</g>
<path id="Vector_6" opacity="0.5" d="M396.21 227.21C399.13 223.21 404.14 220.41 408.94 221.5C413.74 222.59 418.29 227.16 422.56 224.87C428.4 221.75 424.26 210.28 433.74 209.43C435.715 209.299 437.694 209.642 439.51 210.43C443.51 212.06 449.77 213.9 452.85 210.23C454.66 208.07 454.53 204.78 456.26 202.54C458.26 199.94 462.07 199.61 465.32 200.11L465.48 200.16C471.75 202.75 478.61 198.45 478.12 191.69C477.49 182.69 480.35 174.21 480.97 172.37L492.85 137.06C497.903 121.923 496.758 105.401 489.666 91.1054C482.573 76.8099 470.11 65.9035 455 60.77V60.77C439.864 55.7234 423.346 56.8727 409.055 63.9667C394.764 71.0608 383.862 83.5228 378.73 98.63L360 154.16C355.132 168.765 356.025 184.677 362.497 198.645C368.969 212.613 380.531 223.582 394.82 229.31C395.242 228.583 395.706 227.882 396.21 227.21Z" fill="white"/>
<path id="Vector_7" opacity="0.2" d="M418.35 99.59C421.945 99.59 424.86 96.6754 424.86 93.08C424.86 89.4846 421.945 86.57 418.35 86.57C414.755 86.57 411.84 89.4846 411.84 93.08C411.84 96.6754 414.755 99.59 418.35 99.59Z" fill="black"/>
<path id="Vector_8" opacity="0.2" d="M455.37 112.04C458.965 112.04 461.88 109.125 461.88 105.53C461.88 101.935 458.965 99.02 455.37 99.02C451.775 99.02 448.86 101.935 448.86 105.53C448.86 109.125 451.775 112.04 455.37 112.04Z" fill="black"/>
</g>
<path id="Vector_9" opacity="0.1" d="M569.52 99.43C571.379 106.615 572.317 114.008 572.31 121.43C572.31 182.7 508.2 232.37 429.11 232.37C364.38 232.33 309.69 199.07 292 153.43C305.14 204.2 363 242.43 432.41 242.43C511.5 242.43 575.62 192.76 575.62 131.49C575.6 120.517 573.531 109.644 569.52 99.43V99.43Z" fill="black"/>
<g id="Group_4" opacity="0.8">
<path id="Vector_10" opacity="0.8" d="M432 258.09C595.576 258.09 728.18 223.432 728.18 180.68C728.18 137.928 595.576 103.27 432 103.27C268.424 103.27 135.82 137.928 135.82 180.68C135.82 223.432 268.424 258.09 432 258.09Z" fill="url(#paint2_linear)"/>
</g>
<path id="Vector_11" d="M432 105.83C273.82 105.83 145.58 139.34 145.58 180.69H718.42C718.42 139.34 590.18 105.83 432 105.83Z" fill="white"/>
<path id="Vector_12" d="M432 255.54C590.18 255.54 718.42 222.03 718.42 180.69H145.58C145.58 222.03 273.82 255.54 432 255.54Z" fill="white"/>
<path id="Vector_13" opacity="0.05" d="M432 255.54C590.18 255.54 718.42 222.03 718.42 180.69H145.58C145.58 222.03 273.82 255.54 432 255.54Z" fill="black"/>
<path id="Vector_14" opacity="0.05" d="M551.48 161.15H312.52C303.01 161.15 295.3 168.86 295.3 178.37V182.99C295.3 192.5 303.01 200.21 312.52 200.21H551.48C560.99 200.21 568.7 192.5 568.7 182.99V178.37C568.7 168.86 560.99 161.15 551.48 161.15Z" fill="black"/>
<path id="Vector_15" opacity="0.05" d="M234 161.43C252.778 161.43 268 158.296 268 154.43C268 150.564 252.778 147.43 234 147.43C215.222 147.43 200 150.564 200 154.43C200 158.296 215.222 161.43 234 161.43Z" fill="black"/>
<path id="Vector_16" opacity="0.05" d="M234 214.43C252.778 214.43 268 211.296 268 207.43C268 203.564 252.778 200.43 234 200.43C215.222 200.43 200 203.564 200 207.43C200 211.296 215.222 214.43 234 214.43Z" fill="black"/>
<path id="Vector_17" opacity="0.05" d="M621 161.43C639.778 161.43 655 158.296 655 154.43C655 150.564 639.778 147.43 621 147.43C602.222 147.43 587 150.564 587 154.43C587 158.296 602.222 161.43 621 161.43Z" fill="black"/>
<path id="Vector_18" opacity="0.05" d="M621 214.43C639.778 214.43 655 211.296 655 207.43C655 203.564 639.778 200.43 621 200.43C602.222 200.43 587 203.564 587 207.43C587 211.296 602.222 214.43 621 214.43Z" fill="black"/>
<path id="Vector_19" opacity="0.05" d="M432 131.43C450.778 131.43 466 128.296 466 124.43C466 120.564 450.778 117.43 432 117.43C413.222 117.43 398 120.564 398 124.43C398 128.296 413.222 131.43 432 131.43Z" fill="black"/>
<path id="Vector_20" opacity="0.05" d="M457 58.43C475.778 58.43 491 55.296 491 51.43C491 47.564 475.778 44.43 457 44.43C438.222 44.43 423 47.564 423 51.43C423 55.296 438.222 58.43 457 58.43Z" fill="black"/>
<path id="Vector_21" opacity="0.05" d="M392 88.43C410.778 88.43 426 85.296 426 81.43C426 77.564 410.778 74.43 392 74.43C373.222 74.43 358 77.564 358 81.43C358 85.296 373.222 88.43 392 88.43Z" fill="black"/>
<path id="Vector_22" opacity="0.05" d="M517 101.43C535.778 101.43 551 98.296 551 94.43C551 90.564 535.778 87.43 517 87.43C498.222 87.43 483 90.564 483 94.43C483 98.296 498.222 101.43 517 101.43Z" fill="black"/>
<path id="Vector_23" opacity="0.05" d="M432 235.43C450.778 235.43 466 232.296 466 228.43C466 224.564 450.778 221.43 432 221.43C413.222 221.43 398 224.564 398 228.43C398 232.296 413.222 235.43 432 235.43Z" fill="black"/>
</g>
</g>
<defs>
<linearGradient id="paint0_linear" x1="432" y1="245.78" x2="432" y2="18.85" gradientUnits="userSpaceOnUse">
<stop stop-color="#808080" stop-opacity="0.25"/>
<stop offset="0.54" stop-color="#808080" stop-opacity="0.12"/>
<stop offset="1" stop-color="#808080" stop-opacity="0.1"/>
</linearGradient>
<linearGradient id="paint1_linear" x1="-40959.8" y1="274931" x2="-30388.3" y2="243546" gradientUnits="userSpaceOnUse">
<stop stop-color="#808080" stop-opacity="0.25"/>
<stop offset="0.54" stop-color="#808080" stop-opacity="0.12"/>
<stop offset="1" stop-color="#808080" stop-opacity="0.1"/>
</linearGradient>
<linearGradient id="paint2_linear" x1="256035" y1="40060.8" x2="256035" y2="16091.5" gradientUnits="userSpaceOnUse">
<stop stop-color="#808080" stop-opacity="0.25"/>
<stop offset="0.54" stop-color="#808080" stop-opacity="0.12"/>
<stop offset="1" stop-color="#808080" stop-opacity="0.1"/>
</linearGradient>
<clipPath id="clip0">
<rect width="840" height="726.85" fill="white"/>
</clipPath>
</defs>
</svg>
